<svg xmlns="http://www.w3.org/2000/svg" xmlns:xlink="http://www.w3.org/1999/xlink" style="isolation:isolate" viewBox="0 0 640 640" width="640pt" height="640pt"><defs><clipPath id="_clipPath_H9UdX2FkVGE61lNUIIwHXSiaNit1RMHu"><rect width="640" height="640"/></clipPath></defs><switch><g clip-path="url(#_clipPath_H9UdX2FkVGE61lNUIIwHXSiaNit1RMHu)"><mask id="_mask_W5x30dSrFIpTOA26HFsDsI9L6sWQfeHb"><polygon points="595.751289,521.133284,508,521.133284,551.875644,597.128129" id="Polygon" fill="white" stroke="none"/></mask><polygon points="595.751289,521.133284,508,521.133284,551.875644,597.128129" id="Polygon" fill="none" mask="url(#_mask_W5x30dSrFIpTOA26HFsDsI9L6sWQfeHb)" vector-effect="non-scaling-stroke" stroke-width="20" stroke="rgb(255,87,51)" stroke-linejoin="round" stroke-linecap="square" stroke-miterlimit="3"/><polygon points="595.751289,521.133284,508,521.133284,551.875644,597.128129" id="Polygon" fill="none"/><mask id="_mask_ydC5TtLjNNHLXNKgq4cSehiPJnrF9wMo"><polygon points="518.510708,388,430.75942,388,474.635064,463.994845" id="Polygon" fill="white" stroke="none"/></mask><polygon points="518.510708,388,430.75942,388,474.635064,463.994845" id="Polygon" fill="none" mask="url(#_mask_ydC5TtLjNNHLXNKgq4cSehiPJnrF9wMo)" vector-effect="non-scaling-stroke" stroke-width="20" stroke="rgb(255,87,51)" stroke-linejoin="round" stroke-linecap="square" stroke-miterlimit="3"/><polygon points="518.510708,388,430.75942,388,474.635064,463.994845" id="Polygon" fill="none"/><mask id="_mask_kAYpZ1XDu1iEiNGIs88mqkk9PwCCi6x5"><polygon points="440.751289,521.133284,353,521.133284,396.875644,597.128129" id="Polygon" fill="white" stroke="none"/></mask><polygon points="440.751289,521.133284,353,521.133284,396.875644,597.128129" id="Polygon" fill="none" mask="url(#_mask_kAYpZ1XDu1iEiNGIs88mqkk9PwCCi6x5)" vector-effect="non-scaling-stroke" stroke-width="20" stroke="rgb(255,87,51)" stroke-linejoin="round" stroke-linecap="square" stroke-miterlimit="3"/><polygon points="440.751289,521.133284,353,521.133284,396.875644,597.128129" id="Polygon" fill="none"/><mask id="_mask_MfOpagKwlU5ORu8o818vvVkXsePSMHKo"><polygon points="557.270128,454,392,454,474.635064,597.128129" id="Polygon" fill="white" stroke="none"/></mask><polygon points="557.270128,454,392,454,474.635064,597.128129" id="Polygon" fill="none" mask="url(#_mask_MfOpagKwlU5ORu8o818vvVkXsePSMHKo)" vector-effect="non-scaling-stroke" stroke-width="20" stroke="rgb(255,75,51)" stroke-linejoin="round" stroke-linecap="square" stroke-miterlimit="3"/><polygon points="557.270128,454,392,454,474.635064,597.128129" id="Polygon" fill="none"/><mask id="_mask_CPEmv7afY0rFcijkFoeh2zNnm6IJoDT4"><polygon points="209.356008,388,121.604719,388,165.480363,463.994845" id="Polygon" fill="white" stroke="none"/></mask><polygon points="209.356008,388,121.604719,388,165.480363,463.994845" id="Polygon" fill="none" mask="url(#_mask_CPEmv7afY0rFcijkFoeh2zNnm6IJoDT4)" vector-effect="non-scaling-stroke" stroke-width="20" stroke="rgb(255,87,51)" stroke-linejoin="round" stroke-linecap="square" stroke-miterlimit="3"/><polygon points="209.356008,388,121.604719,388,165.480363,463.994845" id="Polygon" fill="none"/><mask id="_mask_fGuDF1nMyfkEbAFCJWB2gZbUaoBLQRav"><polygon points="286.751289,521.133284,199,521.133284,242.875644,597.128129" id="Polygon" fill="white" stroke="none"/></mask><polygon points="286.751289,521.133284,199,521.133284,242.875644,597.128129" id="Polygon" fill="none" mask="url(#_mask_fGuDF1nMyfkEbAFCJWB2gZbUaoBLQRav)" vector-effect="non-scaling-stroke" stroke-width="20" stroke="rgb(255,87,51)" stroke-linejoin="round" stroke-linecap="square" stroke-miterlimit="3"/><polygon points="286.751289,521.133284,199,521.133284,242.875644,597.128129" id="Polygon" fill="none"/><mask id="_mask_IiAo1pzGHLqHSgKVL7LPeL7Rn8iqRYJP"><polygon points="132.751289,521.133284,45,521.133284,88.875644,597.128129" id="Polygon" fill="white" stroke="none"/></mask><polygon points="132.751289,521.133284,45,521.133284,88.875644,597.128129" id="Polygon" fill="none" mask="url(#_mask_IiAo1pzGHLqHSgKVL7LPeL7Rn8iqRYJP)" vector-effect="non-scaling-stroke" stroke-width="20" stroke="rgb(255,87,51)" stroke-linejoin="round" stroke-linecap="square" stroke-miterlimit="3"/><polygon points="132.751289,521.133284,45,521.133284,88.875644,597.128129" id="Polygon" fill="none"/><mask id="_mask_Ygxf2stqN9CVRg4Xo3sgzcUdJcC8vhvN"><polygon points="248.115427,454,82.845299,454,165.480363,597.128129" id="Polygon" fill="white" stroke="none"/></mask><polygon points="248.115427,454,82.845299,454,165.480363,597.128129" id="Polygon" fill="none" mask="url(#_mask_Ygxf2stqN9CVRg4Xo3sgzcUdJcC8vhvN)" vector-effect="non-scaling-stroke" stroke-width="20" stroke="rgb(255,75,51)" stroke-linejoin="round" stroke-linecap="square" stroke-miterlimit="3"/><polygon points="248.115427,454,82.845299,454,165.480363,597.128129" id="Polygon" fill="none"/><mask id="_mask_2xJnVdqSUlh4gRmfBELCFAP1sIO9k7rM"><polygon points="364.135064,121,276.383775,121,320.25942,196.994845" id="Polygon" fill="white" stroke="none"/></mask><polygon points="364.135064,121,276.383775,121,320.25942,196.994845" id="Polygon" fill="none" mask="url(#_mask_2xJnVdqSUlh4gRmfBELCFAP1sIO9k7rM)" vector-effect="non-scaling-stroke" stroke-width="20" stroke="rgb(255,87,51)" stroke-linejoin="round" stroke-linecap="square" stroke-miterlimit="3"/><polygon points="364.135064,121,276.383775,121,320.25942,196.994845" id="Polygon" fill="none"/><mask id="_mask_KNuYMC4mY73JHCDtPC9j5noiJxFc1GNO"><polygon points="441.375644,254.133284,353.624356,254.133284,397.5,330.128129" id="Polygon" fill="white" stroke="none"/></mask><polygon points="441.375644,254.133284,353.624356,254.133284,397.5,330.128129" id="Polygon" fill="none" mask="url(#_mask_KNuYMC4mY73JHCDtPC9j5noiJxFc1GNO)" vector-effect="non-scaling-stroke" stroke-width="20" stroke="rgb(255,87,51)" stroke-linejoin="round" stroke-linecap="square" stroke-miterlimit="3"/><polygon points="441.375644,254.133284,353.624356,254.133284,397.5,330.128129" id="Polygon" fill="none"/><mask id="_mask_x59dCStTAb4m8vw6ikQRYbPIqc6OHR9x"><polygon points="286.375644,254.133284,198.624356,254.133284,242.5,330.128129" id="Polygon" fill="white" stroke="none"/></mask><polygon points="286.375644,254.133284,198.624356,254.133284,242.5,330.128129" id="Polygon" fill="none" mask="url(#_mask_x59dCStTAb4m8vw6ikQRYbPIqc6OHR9x)" vector-effect="non-scaling-stroke" stroke-width="20" stroke="rgb(255,87,51)" stroke-linejoin="round" stroke-linecap="square" stroke-miterlimit="3"/><polygon points="286.375644,254.133284,198.624356,254.133284,242.5,330.128129" id="Polygon" fill="none"/><mask id="_mask_bTHqJLaM7IBQEeK2X1mkqzD3ro3BPPRL"><polygon points="402.635064,187,237.364936,187,320,330.128129" id="Polygon" fill="white" stroke="none"/></mask><polygon points="402.635064,187,237.364936,187,320,330.128129" id="Polygon" fill="none" mask="url(#_mask_bTHqJLaM7IBQEeK2X1mkqzD3ro3BPPRL)" vector-effect="non-scaling-stroke" stroke-width="20" stroke="rgb(255,75,51)" stroke-linejoin="round" stroke-linecap="square" stroke-miterlimit="3"/><polygon points="402.635064,187,237.364936,187,320,330.128129" id="Polygon" fill="none"/><mask id="_mask_Goj7liQOa21YOE52XNgAoA81fpbAxEm4"><polygon points="480,320,160,320,320,597.128129" id="Polygon" fill="white" stroke="none"/></mask><polygon points="480,320,160,320,320,597.128129" id="Polygon" fill="none" mask="url(#_mask_Goj7liQOa21YOE52XNgAoA81fpbAxEm4)" vector-effect="non-scaling-stroke" stroke-width="20" stroke="rgb(255,63,51)" stroke-linejoin="round" stroke-linecap="square" stroke-miterlimit="3"/><polygon points="480,320,160,320,320,597.128129" id="Polygon" fill="none"/><line x1="320" y1="53" x2="631" y2="592" id="Path" vector-effect="non-scaling-stroke" stroke-width="10" stroke="rgb(255,51,51)" stroke-linejoin="miter" stroke-linecap="round" stroke-miterlimit="3"/><line x1="9" y1="592" x2="631" y2="592" id="Path" vector-effect="non-scaling-stroke" stroke-width="10" stroke="rgb(255,51,51)" stroke-linejoin="miter" stroke-linecap="round" stroke-miterlimit="3"/><line x1="320" y1="53" x2="9" y2="592" id="Path" vector-effect="non-scaling-stroke" stroke-width="10" stroke="rgb(255,51,51)" stroke-linejoin="miter" stroke-linecap="round" stroke-miterlimit="3"/></g></switch></svg>